<svg width="32" height="32" viewBox="0 0 32 32" xmlns="http://www.w3.org/2000/svg">
  <defs>
    <linearGradient id="g" x1="0%" y1="0%" x2="100%" y2="100%">
      <stop offset="0%" style="stop-color:#667eea;stop-opacity:1" />
      <stop offset="100%" style="stop-color:#764ba2;stop-opacity:1" />
    </linearGradient>
  </defs>
  
  <!-- Shield -->
  <path d="M 16,4 L 26,10 L 26,20 Q 26,24 16,28 Q 6,24 6,20 L 6,10 Z" fill="url(#g)"/>
  
  <!-- Inner detail -->
  <path d="M 16,7 L 23,11.5 L 23,19.5 Q 23,22.5 16,25.5 Q 9,22.5 9,19.5 L 9,11.5 Z" fill="white" opacity="0.2"/>
  
  <!-- Figure -->
  <g transform="translate(16, 15)">
    <circle cx="0" cy="-4" r="1.5" fill="white"/>
    <path d="M -2.5,-2 L -1.5,-1 L 0,-1.5 L 1.5,-1 L 2.5,-2" stroke="white" stroke-width="0.8" fill="none" stroke-linecap="round"/>
    <rect x="-1" y="-1.5" width="2" height="4" fill="white" rx="0.5"/>
    <path d="M -0.8,2.5 L -1.5,5 M 0.8,2.5 L 1.5,5" stroke="white" stroke-width="0.8" stroke-linecap="round"/>
  </g>
  
  <!-- Star -->
  <circle cx="16" cy="26" r="1.2" fill="#FFD700"/>
</svg>
