<svg width="200" height="200" viewBox="0 0 200 200" xmlns="http://www.w3.org/2000/svg">
  <defs>
    <linearGradient id="grad1" x1="0%" y1="0%" x2="100%" y2="100%">
      <stop offset="0%" style="stop-color:#667eea;stop-opacity:1" />
      <stop offset="100%" style="stop-color:#764ba2;stop-opacity:1" />
    </linearGradient>
    <linearGradient id="gold" x1="0%" y1="0%" x2="100%" y2="100%">
      <stop offset="0%" style="stop-color:#FFD700;stop-opacity:1" />
      <stop offset="100%" style="stop-color:#FFA500;stop-opacity:1" />
    </linearGradient>
  </defs>
  
  <!-- Laurel Wreath (Victory/Athena) - Left -->
  <path d="M 60,100 Q 50,80 55,60 Q 58,50 65,55 Q 60,65 62,75 Q 64,85 60,100" fill="url(#gold)" opacity="0.9"/>
  <path d="M 65,100 Q 58,85 60,70 Q 62,62 68,66 Q 64,74 66,82 Q 68,90 65,100" fill="url(#gold)" opacity="0.9"/>
  <path d="M 70,105 Q 65,92 67,80 Q 69,73 74,76 Q 71,82 72,88 Q 73,95 70,105" fill="url(#gold)" opacity="0.9"/>
  
  <!-- Laurel Wreath (Victory/Athena) - Right -->
  <path d="M 140,100 Q 150,80 145,60 Q 142,50 135,55 Q 140,65 138,75 Q 136,85 140,100" fill="url(#gold)" opacity="0.9"/>
  <path d="M 135,100 Q 142,85 140,70 Q 138,62 132,66 Q 136,74 134,82 Q 132,90 135,100" fill="url(#gold)" opacity="0.9"/>
  <path d="M 130,105 Q 135,92 133,80 Q 131,73 126,76 Q 129,82 128,88 Q 127,95 130,105" fill="url(#gold)" opacity="0.9"/>
  
  <!-- Central Shield/Emblem (Hercules strength) -->
  <path d="M 100,40 L 130,60 L 130,120 Q 130,140 100,155 Q 70,140 70,120 L 70,60 Z" fill="url(#grad1)"/>
  
  <!-- Inner Shield Detail -->
  <path d="M 100,50 L 122,66 L 122,118 Q 122,133 100,145 Q 78,133 78,118 L 78,66 Z" fill="white" opacity="0.15"/>
  
  <!-- Abstract Athlete Figure (Hercules pose) -->
  <g transform="translate(100, 90)">
    <!-- Strong geometric body -->
    <circle cx="0" cy="-20" r="6" fill="white"/>
    <!-- Shoulders/Arms in victory pose -->
    <path d="M -12,-15 L -8,-10 L 0,-12 L 8,-10 L 12,-15" stroke="white" stroke-width="3" fill="none" stroke-linecap="round" stroke-linejoin="round"/>
    <!-- Torso -->
    <rect x="-4" y="-12" width="8" height="18" fill="white" rx="2"/>
    <!-- Power stance legs -->
    <path d="M -3,6 L -8,20 M 3,6 L 8,20" stroke="white" stroke-width="3" stroke-linecap="round"/>
  </g>
  
  <!-- Three Stars (Excellence) -->
  <g transform="translate(100, 165)">
    <circle cx="-15" cy="0" r="3" fill="url(#gold)"/>
    <circle cx="0" cy="0" r="4" fill="url(#gold)"/>
    <circle cx="15" cy="0" r="3" fill="url(#gold)"/>
  </g>
</svg>
